<?xml version="1.0" ?><!DOCTYPE svg  PUBLIC '-//W3C//DTD SVG 1.0//EN'  'http://www.w3.org/TR/2001/REC-SVG-20010904/DTD/svg10.dtd'><svg height="110px" style="enable-background:new 0 0 110 110;" version="1.0" viewBox="0 0 110 110" width="110px" xml:space="preserve" xmlns="http://www.w3.org/2000/svg" xmlns:xlink="http://www.w3.org/1999/xlink"><g id="Artboard"/><g id="Multicolor"><circle cx="55" cy="55" r="55" style="fill:#25B7D3;"/><g><path d="M79,47.006C80.199,36.219,69.636,27,59,27c-9.324,0-18.992,7.09-19.908,16.173    C30.425,41.871,23,48.603,23,57c0,7.732,6.268,14,14,14h38c6.627,0,12-5.373,12-12C87,52.265,82,47.006,79,47.006z" style="fill:#F0F1F1;"/><path d="M59,27c-9.324,0-18.992,7.09-19.908,16.173C30.425,41.871,23,48.603,23,57c0,7.732,6.268,14,14,14    h0.747l36.842-36.842C70.729,29.818,64.877,27,59,27z" style="fill:#FFFFFF;"/><path d="M47,57.692v19.541c-3.922-0.925-8,1.018-8,3.768c0,2.209,2.687,4,6,4s6-1.791,6-4V60.308l12-5.25    v14.174c-3.922-0.925-8,1.018-8,3.768c0,2.209,2.687,4,6,4s6-1.791,6-4V48.942L47,57.692z" style="fill:#3E3E3F;"/></g></g></svg>